<svg xmlns="http://www.w3.org/2000/svg" width="16.893" height="18.019" viewBox="0 0 16.893 18.019">
  <path id="Icon_metro-calendar" data-name="Icon metro-calendar" d="M8.2,8.685h2.252v2.252H8.2Zm3.379,0h2.252v2.252H11.58Zm3.379,0h2.252v2.252H14.959ZM4.823,15.442H7.075v2.252H4.823Zm3.379,0h2.252v2.252H8.2Zm3.379,0h2.252v2.252H11.58ZM8.2,12.064h2.252v2.252H8.2Zm3.379,0h2.252v2.252H11.58Zm3.379,0h2.252v2.252H14.959Zm-10.136,0H7.075v2.252H4.823ZM17.211,1.928V3.054H14.959V1.928H7.075V3.054H4.823V1.928H2.571V19.947H19.464V1.928H17.211Zm1.126,16.893H3.7V6.433h14.64Z" transform="translate(-2.571 -1.928)" fill="rgba(67,76,73,0.5)"/>
</svg>
