<svg enable-background="new 0 0 36 36" height="512" viewBox="0 0 36 36" width="512" xmlns="http://www.w3.org/2000/svg"><g id="BG"><g><path d="m3.442 23.883c6.061 3.333 8.497 8.761 11.417 10.367 2.921 1.606 9.978 3.299 17.366-10.137s.221-19.945-2.992-21.712c-15.042-8.27-36.525 15.58-25.791 21.482z" fill="#efefef"/></g></g><g id="Color"><g><path d="m26.25 12.25v7.5c0 .828-.672 1.5-1.5 1.5h-13.5c-.828 0-1.5-.672-1.5-1.5v-7.5c0-.828.672-1.5 1.5-1.5h2.75l1.224-2.447c.169-.339.516-.553.894-.553h3.764c.379 0 .725.214.894.553l1.224 2.447h2.75c.828 0 1.5.672 1.5 1.5z" fill="#f3f3f1"/></g><g><circle cx="18" cy="15.5" fill="#2fdf84" r="2.75"/></g><g><path d="m17.5 15.5c0-1.117.669-2.074 1.625-2.504-.344-.155-.723-.246-1.125-.246-1.519 0-2.75 1.231-2.75 2.75s1.231 2.75 2.75 2.75c.402 0 .781-.091 1.125-.246-.956-.43-1.625-1.387-1.625-2.504z" fill="#00b871"/></g><g><g><path d="m17.474 8.303c.169-.339.516-.553.894-.553h-2.25c-.379 0-.725.214-.894.553l-1.224 2.447h2.25z" fill="#d5dbe1"/></g><g><path d="m12 19.75v-7.5c0-.828.672-1.5 1.5-1.5h-2.25c-.828 0-1.5.672-1.5 1.5v7.5c0 .828.672 1.5 1.5 1.5h2.25c-.828 0-1.5-.672-1.5-1.5z" fill="#d5dbe1"/></g></g><g><g><path d="m26.305 31.445h2v1h-2z" fill="#a4afc1" transform="matrix(.707 -.707 .707 .707 -14.591 28.664)"/></g><g><path d="m30.371 27.379h2v1h-2z" fill="#a4afc1" transform="matrix(.707 -.707 .707 .707 -10.525 30.348)"/></g><g><path d="m30.871 31.121h1v2h-1z" fill="#a4afc1" transform="matrix(.707 -.707 .707 .707 -13.525 31.583)"/></g></g><g><path d="m10 7.125c-.827 0-1.5-.673-1.5-1.5s.673-1.5 1.5-1.5 1.5.673 1.5 1.5-.673 1.5-1.5 1.5zm0-2c-.276 0-.5.224-.5.5s.224.5.5.5.5-.224.5-.5-.224-.5-.5-.5z" fill="#a4afc1"/></g></g><g id="regular_1.5"><g><path d="m18 19c-1.93 0-3.5-1.57-3.5-3.5s1.57-3.5 3.5-3.5 3.5 1.57 3.5 3.5-1.57 3.5-3.5 3.5zm0-5.5c-1.103 0-2 .897-2 2s.897 2 2 2 2-.897 2-2-.897-2-2-2z"/></g><g><path d="m18.25 27.25c-6.869 0-12.25-2.745-12.25-6.25 0-.944.156-1.657.954-2.504l1.093 1.028c-.468.496-.547.804-.547 1.476 0 2.294 4.32 4.75 10.75 4.75z"/></g><g><path d="m20.366 27.111-.16-1.491c4.961-.534 8.294-2.69 8.294-4.37 0-.852-.16-1.133-.623-1.822l1.245-.836c.546.813.878 1.397.878 2.658 0 2.796-4.052 5.261-9.634 5.861z"/></g><g><path d="m24.75 22h-13.5c-1.241 0-2.25-1.009-2.25-2.25v-7.5c0-1.241 1.009-2.25 2.25-2.25h2.287l1.016-2.033c.298-.596.898-.967 1.565-.967h3.764c.667 0 1.267.371 1.565.967l1.016 2.033h2.287c1.241 0 2.25 1.009 2.25 2.25v7.5c0 1.241-1.009 2.25-2.25 2.25zm-13.5-10.5c-.414 0-.75.336-.75.75v7.5c0 .414.336.75.75.75h13.5c.414 0 .75-.336.75-.75v-7.5c0-.414-.336-.75-.75-.75h-2.75c-.284 0-.544-.161-.671-.415l-1.224-2.447c-.042-.085-.128-.138-.223-.138h-3.764c-.095 0-.181.053-.224.138l-1.224 2.447c-.126.254-.386.415-.67.415z"/></g><g><path d="m16.219 29.085-.938-1.171 1.768-1.415-1.768-1.415.938-1.171 2.5 2c.177.144.281.359.281.587s-.104.443-.281.585z"/></g></g></svg>